<svg width="27" height="25" viewBox="0 0 27 25" fill="none" xmlns="http://www.w3.org/2000/svg">
<path d="M0 23.9618L7.88685 10.3494L17.5292 14.4025L13.3568 23.9618H0Z" fill="#F1F1F1"/>
<path d="M19.7177 23.7575H16.7914V22.0042C16.7914 21.6775 17.0557 21.4127 17.3817 21.4127H19.1273C19.4533 21.4127 19.7176 21.6775 19.7176 22.0042V23.7575H19.7177V23.7575Z" fill="#898890"/>
<path d="M13.3489 14.9582C14.6268 14.4557 15.2561 13.0103 14.7546 11.73C14.2531 10.4496 12.8106 9.81899 11.5327 10.3215C10.2548 10.824 9.62544 12.2693 10.127 13.5497C10.6285 14.8301 12.071 15.4607 13.3489 14.9582Z" fill="#E9E9E9"/>
<path d="M14.0812 14.5115C14.8457 13.8387 15.1477 12.7337 14.7545 11.73C14.253 10.4496 12.8105 9.81902 11.5326 10.3215C10.5308 10.7155 9.92785 11.6889 9.95561 12.708C11.3308 13.3092 12.706 13.9103 14.0812 14.5115Z" fill="#D3D3D3"/>
<path d="M17.4496 5.54656C18.7275 5.04405 19.3568 3.59872 18.8553 2.31834C18.3538 1.03796 16.9113 0.407371 15.6334 0.909883C14.3555 1.4124 13.7262 2.85772 14.2277 4.1381C14.7292 5.41848 16.1717 6.04907 17.4496 5.54656Z" fill="#57565C"/>
<path d="M23.5176 23.962L21.5379 23.4887L23.6684 14.5432L15.6327 6.57237L16.4352 5.93445L17.1924 5.25122L25.5064 13.4958C25.7595 13.7464 25.8636 14.1112 25.781 14.4579L23.5176 23.962Z" fill="#898890"/>
<path d="M24.7912 25H15.7352C15.0327 25 14.4631 24.4293 14.4631 23.7254C14.4631 23.0215 15.0327 22.4509 15.7352 22.4509H24.7912C25.4937 22.4509 26.0633 23.0215 26.0633 23.7254C26.0633 24.4293 25.4937 25 24.7912 25Z" fill="#57565C"/>
<path d="M18.4875 4.08819L14.5732 2.37707C14.1829 2.20642 13.7496 2.19832 13.3533 2.35418C12.9568 2.51006 12.6448 2.81128 12.4745 3.20237L11.3456 5.79492L7.84106 8.00468C7.35802 8.30932 7.08458 8.8528 7.12744 9.42301C7.17032 9.99327 7.52192 10.4896 8.04503 10.7183L16.8252 14.5565C17.2013 14.7209 17.6188 14.7287 18.0009 14.5785L18.0009 14.5785C18.1437 14.5224 18.2769 14.4453 18.397 14.3495C18.8434 13.9931 19.055 13.4226 18.9493 12.8606L18.1824 8.78355L19.3113 6.19105C19.4816 5.79996 19.4897 5.36586 19.3341 4.96868C19.1785 4.57152 18.8778 4.25877 18.4875 4.08819Z" fill="#898890"/>
<path d="M18.9492 12.8606L18.1823 8.78357L19.3112 6.19102C19.4815 5.79998 19.4896 5.36583 19.334 4.96865C19.1784 4.57147 18.8778 4.25877 18.4875 4.08815L16.5304 3.2326L12.4351 12.6374L16.8252 14.5565C17.2014 14.721 17.6189 14.7288 18.0009 14.5786C18.1437 14.5224 18.2769 14.4453 18.397 14.3495C18.8434 13.9931 19.055 13.4226 18.9492 12.8606Z" fill="#787680"/>
</svg>
