<svg width="22" height="25" viewBox="0 0 22 25" fill="none" xmlns="http://www.w3.org/2000/svg">
<path d="M14.7177 22.7575H11.7914V21.0042C11.7914 20.6775 12.0557 20.4127 12.3817 20.4127H14.1273C14.4533 20.4127 14.7176 20.6775 14.7176 21.0042V22.7575H14.7177V22.7575Z" fill="#898890"/>
<path d="M8.34888 14.9582C9.62676 14.4557 10.2561 13.0103 9.75459 11.73C9.25306 10.4496 7.81056 9.81899 6.53268 10.3215C5.2548 10.824 4.62544 12.2693 5.12697 13.5497C5.6285 14.8301 7.071 15.4607 8.34888 14.9582Z" fill="#E9E9E9"/>
<path d="M9.08117 14.5115C9.84566 13.8387 10.1477 12.7337 9.75453 11.73C9.253 10.4496 7.8105 9.81902 6.53262 10.3215C5.53079 10.7155 4.92785 11.6889 4.95561 12.708C6.33078 13.3092 7.70599 13.9103 9.08117 14.5115Z" fill="#D3D3D3"/>
<path d="M12.4496 5.54656C13.7275 5.04405 14.3568 3.59872 13.8553 2.31834C13.3538 1.03796 11.9113 0.407371 10.6334 0.909883C9.35551 1.4124 8.72615 2.85772 9.22768 4.1381C9.72921 5.41848 11.1717 6.04907 12.4496 5.54656Z" fill="#57565C"/>
<path d="M18.5176 23.962L16.5379 23.4887L18.6684 14.5432L10.6327 6.57237L11.4352 5.93445L12.1924 5.25122L20.5064 13.4958C20.7595 13.7464 20.8636 14.1112 20.781 14.4579L18.5176 23.962Z" fill="#898890"/>
<path d="M19.7912 25H10.7352C10.0327 25 9.46313 24.4293 9.46313 23.7254C9.46313 23.0215 10.0327 22.4509 10.7352 22.4509H19.7912C20.4937 22.4509 21.0633 23.0215 21.0633 23.7254C21.0633 24.4293 20.4937 25 19.7912 25Z" fill="#57565C"/>
<path d="M13.4875 4.08819L9.57319 2.37707C9.18291 2.20642 8.74961 2.19832 8.35325 2.35418C7.95685 2.51006 7.64476 2.81128 7.47447 3.20237L6.34556 5.79492L2.84106 8.00468C2.35802 8.30932 2.08458 8.8528 2.12744 9.42301C2.17032 9.99327 2.52192 10.4896 3.04503 10.7183L11.8252 14.5565C12.2013 14.7209 12.6188 14.7287 13.0009 14.5785L13.0009 14.5785C13.1437 14.5224 13.2769 14.4453 13.397 14.3495C13.8434 13.9931 14.055 13.4226 13.9493 12.8606L13.1824 8.78355L14.3113 6.19105C14.4816 5.79996 14.4897 5.36586 14.3341 4.96868C14.1785 4.57152 13.8778 4.25877 13.4875 4.08819Z" fill="#898890"/>
<path d="M13.9492 12.8606L13.1823 8.78357L14.3112 6.19102C14.4815 5.79998 14.4896 5.36583 14.334 4.96865C14.1784 4.57147 13.8778 4.25877 13.4875 4.08815L11.5304 3.2326L7.43513 12.6374L11.8252 14.5565C12.2014 14.721 12.6189 14.7288 13.0009 14.5786C13.1437 14.5224 13.2769 14.4453 13.397 14.3495C13.8434 13.9931 14.055 13.4226 13.9492 12.8606Z" fill="#787680"/>
</svg>
