<svg width="382" height="274" viewBox="0 0 382 274" fill="none" xmlns="http://www.w3.org/2000/svg">
<path d="M27.0648 173.567C90.5922 138.785 206.734 85.9847 163.083 153.045C108.518 236.871 234.74 148.523 223.722 135.577" stroke="#F07E40" stroke-width="5"/>
<path d="M45.4999 147C40.5 152.5 21.1336 166.14 26.5198 174C33.2526 183.825 57.5334 176.5 64.5198 176.5" stroke="#F07E40" stroke-width="5"/>
<path d="M161.872 104.681C161.935 104.359 162.019 103.86 162.124 103.184C162.234 102.481 162.358 101.711 162.494 100.874C162.663 100.015 162.812 99.1112 162.943 98.1615C163.106 97.1903 163.258 96.2728 163.4 95.4089C163.568 94.5503 163.705 93.7829 163.81 93.1069C163.914 92.4308 163.998 91.9318 164.062 91.6098C164.109 91.3683 164.17 91.0598 164.243 90.6841C164.344 90.3137 164.399 89.9623 164.408 89.6298C164.418 89.2973 164.366 88.9945 164.252 88.7214C164.139 88.4483 163.894 88.2749 163.519 88.2012C162.526 88.0063 161.522 87.8651 160.509 87.7776C159.527 87.6685 158.529 87.6398 157.516 87.6917C156.529 87.7489 155.551 87.9052 154.582 88.1607C153.617 88.3894 152.685 88.7359 151.786 89.2003C151.684 89.1524 151.555 89.0296 151.399 88.8317C151.275 88.6123 151.21 88.4463 151.204 88.3337C151.181 87.8833 151.464 87.5069 152.052 87.2045C152.668 86.9074 153.453 86.6713 154.407 86.4963C155.387 86.3265 156.454 86.2155 157.607 86.1631C158.76 86.1107 159.864 86.0906 160.921 86.103C161.983 86.0884 162.927 86.1065 163.753 86.1572C164.605 86.2131 165.179 86.2701 165.475 86.328C165.716 86.3754 165.885 86.4364 165.982 86.5112C166.106 86.5912 166.256 86.7462 166.434 86.9761L175.007 88.6588C174.97 88.8466 174.831 88.9865 174.59 89.0786C174.381 89.149 174.132 89.2116 173.843 89.2662C173.559 89.2941 173.29 89.3111 173.038 89.3174C172.792 89.2968 172.628 89.2786 172.548 89.2628C172.354 89.2528 172 89.2112 171.485 89.1379C170.97 89.0647 170.426 88.9996 169.852 88.9427C169.31 88.8642 168.781 88.7883 168.266 88.7151C167.778 88.6471 167.427 88.5921 167.212 88.5499C167.008 88.5936 166.802 88.6506 166.593 88.7211C166.384 88.7915 166.194 88.9075 166.023 89.069C166.024 89.2084 166.003 89.4552 165.962 89.8092C165.952 90.1418 165.924 90.4985 165.877 90.8794C165.862 91.2387 165.834 91.5954 165.792 91.9495C165.756 92.2768 165.725 92.5075 165.698 92.6416C165.667 92.8026 165.596 93.1648 165.485 93.7283C165.374 94.2918 165.243 94.9626 165.09 95.7407C164.942 96.492 164.787 97.2835 164.624 98.1153C164.461 98.9471 164.305 99.7386 164.158 100.49C164.01 101.241 163.881 101.899 163.771 102.462C163.665 102.999 163.594 103.361 163.557 103.549C163.547 103.602 163.531 103.753 163.511 103.999C163.49 104.246 163.464 104.52 163.433 104.82C163.434 105.099 163.424 105.362 163.404 105.609C163.415 105.834 163.429 105.976 163.446 106.035L163.398 106.276C163.356 106.491 163.247 106.623 163.07 106.672C162.925 106.699 162.759 106.694 162.571 106.657C162.356 106.615 162.192 106.527 162.079 106.394C161.972 106.233 161.896 106.051 161.852 105.847C161.835 105.649 161.832 105.453 161.842 105.26C161.857 105.04 161.867 104.847 161.872 104.681ZM172.893 107.095C173.177 105.646 173.564 104.245 174.052 102.892C174.546 101.512 175.064 100.151 175.606 98.808C176.18 97.4439 176.712 96.0852 177.2 94.7321C177.689 93.379 178.073 91.9914 178.352 90.5693C178.368 90.4888 178.394 90.3547 178.431 90.1668C178.468 89.979 178.491 89.7886 178.501 89.5955C178.543 89.3808 178.583 89.1796 178.62 88.9918C178.657 88.8039 178.68 88.6832 178.691 88.6295C178.776 88.3396 178.761 88.1279 178.648 87.9942C178.535 87.8606 178.371 87.7727 178.157 87.7305C178.13 87.7253 178.074 87.7281 177.988 87.7392C177.902 87.7502 177.832 87.7505 177.779 87.7399C177.645 87.853 177.533 87.9285 177.442 87.9664C177.351 88.0042 177.26 88.0421 177.169 88.0799C177.078 88.1178 176.973 88.153 176.855 88.1856C176.737 88.2182 176.601 88.275 176.446 88.356C176.226 88.4801 175.974 88.5561 175.69 88.584C175.438 88.5902 175.192 88.5696 174.95 88.5222L175.171 87.3953L178.197 85.6068C178.39 85.4774 178.583 85.4177 178.776 85.4278C178.974 85.411 179.167 85.421 179.355 85.4579C179.811 85.5474 180.121 85.8171 180.283 86.267C180.451 86.69 180.536 87.1804 180.538 87.7381C180.572 88.2742 180.536 88.8106 180.431 89.3473C180.331 89.8571 180.257 90.2327 180.21 90.4742C180.189 90.5815 180.16 90.7291 180.123 90.9169C180.086 91.1047 180.049 91.2926 180.012 91.4804C179.981 91.6414 179.952 91.7889 179.925 91.9231C179.899 92.0573 179.883 92.1378 179.878 92.1646C179.83 92.2666 179.724 92.5244 179.559 92.9379C179.426 93.3299 179.251 93.7971 179.033 94.3395C178.847 94.8603 178.637 95.4322 178.404 96.0551C178.175 96.6511 177.952 97.2204 177.734 97.7628C177.521 98.2783 177.333 98.7429 177.168 99.1564C177.035 99.5483 176.94 99.8221 176.881 99.9779L176.858 100.099L176.818 100.3C176.877 100.284 176.955 100.243 177.051 100.178C177.147 100.114 177.198 100.068 177.203 100.041C177.273 99.9711 177.414 99.8178 177.628 99.581C177.874 99.3228 178.122 99.0511 178.373 98.7659C178.624 98.4808 178.856 98.2199 179.07 97.9832C179.311 97.7517 179.463 97.6145 179.527 97.5713C179.661 97.4582 179.875 97.2912 180.169 97.0703C180.49 96.8547 180.827 96.6282 181.18 96.391C181.56 96.1591 181.894 95.946 182.183 95.752C182.504 95.5363 182.742 95.388 182.898 95.307C182.924 95.3123 183.032 95.3333 183.219 95.3702C183.413 95.3802 183.536 95.3905 183.59 95.401C184.207 95.5222 184.565 95.899 184.663 96.5314C184.794 97.1423 184.786 97.893 184.639 98.7838C184.525 99.6529 184.327 100.589 184.046 101.593C183.771 102.57 183.562 103.491 183.421 104.354C183.279 105.218 183.257 105.967 183.356 106.599C183.46 107.205 183.834 107.571 184.478 107.697C184.773 107.755 185.044 107.724 185.29 107.606C185.537 107.487 185.785 107.354 186.037 107.209C186.288 107.063 186.537 106.931 186.784 106.812C187.057 106.698 187.354 106.673 187.676 106.736C187.597 107.139 187.411 107.52 187.117 107.881C186.824 108.241 186.484 108.55 186.099 108.809C185.714 109.068 185.288 109.249 184.822 109.353C184.388 109.435 183.983 109.439 183.607 109.365C182.829 109.212 182.3 108.858 182.019 108.301C181.765 107.75 181.637 107.125 181.634 106.428C181.659 105.736 181.742 105.028 181.884 104.304C182.026 103.579 182.134 102.959 182.207 102.444C182.243 102.117 182.298 101.696 182.372 101.181C182.45 100.639 182.51 100.121 182.551 99.6278C182.619 99.1396 182.674 98.7184 182.715 98.3643C182.762 97.9834 182.786 97.7929 182.786 97.7929L182.487 97.3999C181.636 97.9016 180.858 98.4594 180.152 99.0733C179.452 99.6603 178.821 100.317 178.261 101.043C177.705 101.742 177.18 102.503 176.684 103.325C176.22 104.126 175.762 104.969 175.31 105.856C175.166 106.162 175.052 106.46 174.967 106.75C174.914 107.018 174.835 107.281 174.728 107.539C174.627 107.77 174.499 107.995 174.345 108.216C174.195 108.409 173.963 108.601 173.647 108.789C173.185 108.448 172.918 108.173 172.848 107.964C172.804 107.76 172.819 107.471 172.893 107.095ZM189.323 106.015C189.46 105.317 189.634 104.641 189.846 103.986C190.064 103.304 190.278 102.635 190.491 101.98C190.735 101.304 190.963 100.638 191.175 99.983C191.393 99.3012 191.573 98.5981 191.715 97.8736C191.746 97.7126 191.74 97.5303 191.697 97.3267C191.685 97.1015 191.545 96.9626 191.277 96.9099C190.928 96.8415 190.695 96.8235 190.577 96.8561C190.459 96.8887 190.365 96.94 190.296 97.01C190.253 97.0852 190.168 97.1659 190.039 97.2522C189.938 97.3437 189.716 97.4115 189.372 97.4557L189.171 97.4162C188.608 97.3056 188.384 96.9551 188.5 96.3648C188.531 96.2038 188.756 95.9832 189.173 95.7028C189.617 95.4277 190.11 95.19 190.651 94.9897C191.197 94.7625 191.706 94.5837 192.177 94.4533C192.654 94.2961 192.951 94.2709 193.07 94.3777C193.123 94.3883 193.193 94.4577 193.28 94.5861C193.371 94.6877 193.457 94.8161 193.538 94.9713C193.625 95.0997 193.697 95.2255 193.757 95.3486C193.843 95.477 193.894 95.5706 193.911 95.6296C193.9 95.6832 193.879 95.7906 193.848 95.9516C193.816 96.1125 193.782 96.287 193.745 96.4748C193.735 96.6679 193.711 96.8583 193.674 97.0461C193.643 97.2071 193.619 97.3279 193.603 97.4084C193.451 98.1865 193.244 98.9541 192.984 99.7111C192.729 100.441 192.445 101.18 192.131 101.926C191.845 102.678 191.571 103.432 191.311 104.19C191.051 104.947 190.845 105.714 190.692 106.492C190.665 106.626 190.626 106.897 190.574 107.305C190.522 107.713 190.494 108.139 190.49 108.584C190.513 109.035 190.584 109.453 190.704 109.838C190.828 110.197 191.052 110.408 191.374 110.472C192.018 110.598 192.516 110.612 192.87 110.514C193.229 110.39 193.55 110.244 193.834 110.077C194.117 109.909 194.409 109.772 194.709 109.663C195.041 109.533 195.462 109.518 195.972 109.619C195.751 110.745 195.166 111.522 194.218 111.949C193.271 112.377 192.153 112.464 190.865 112.211C190.194 112.079 189.727 111.764 189.462 111.267C189.198 110.769 189.029 110.206 188.957 109.579C188.917 108.931 188.947 108.282 189.047 107.632C189.146 106.983 189.238 106.444 189.323 106.015ZM193.027 89.27C193.085 88.9749 193.17 88.7547 193.282 88.6095C193.421 88.4696 193.665 88.4339 194.014 88.5023C194.255 88.5497 194.398 88.6752 194.442 88.8789C194.517 89.0609 194.529 89.2861 194.476 89.5544C194.429 89.7959 194.333 90 194.189 90.1668C194.077 90.312 193.9 90.3609 193.658 90.3135C193.31 90.245 193.095 90.1332 193.014 89.9779C192.965 89.8011 192.969 89.5652 193.027 89.27ZM196.402 106.15C196.412 106.096 196.428 106.016 196.449 105.909C196.47 105.801 196.494 105.681 196.52 105.546C196.573 105.417 196.611 105.299 196.632 105.192C196.658 105.058 196.674 104.977 196.679 104.951C196.722 104.875 196.834 104.8 197.016 104.724C197.225 104.654 197.367 104.64 197.442 104.682C197.593 104.768 197.703 104.984 197.774 105.333C197.845 105.681 197.903 106.096 197.948 106.579C197.992 107.061 198.04 107.6 198.09 108.195C198.173 108.769 198.301 109.323 198.474 109.859C198.68 110.373 198.947 110.857 199.276 111.312C199.637 111.745 200.102 112.073 200.671 112.296C200.853 112.36 201.001 112.389 201.114 112.383C201.231 112.351 201.312 112.297 201.354 112.222C201.429 112.125 201.477 112.023 201.498 111.915C201.524 111.781 201.545 111.674 201.561 111.593C201.629 111.105 201.539 110.572 201.29 109.994C201.047 109.389 200.741 108.743 200.374 108.058C200.012 107.346 199.656 106.608 199.304 105.842C198.958 105.05 198.698 104.246 198.524 103.432C198.354 102.59 198.314 101.733 198.402 100.858C198.495 99.9569 198.84 99.0494 199.438 98.1356C199.485 97.8941 199.669 97.5958 199.99 97.2407C200.337 96.8909 200.719 96.5758 201.137 96.2955C201.586 95.9936 202.038 95.748 202.493 95.5587C202.948 95.3693 203.324 95.3036 203.619 95.3616C204.048 95.4458 204.435 95.6053 204.779 95.8401C205.15 96.0801 205.406 96.4089 205.546 96.8267C205.746 97.2282 205.963 97.7583 206.196 98.4171C206.461 99.0543 206.672 99.6809 206.83 100.297C207.014 100.918 207.102 101.465 207.093 101.937C207.084 102.409 206.911 102.654 206.573 102.671C206.197 102.597 205.896 102.427 205.67 102.159C205.471 101.897 205.322 101.589 205.224 101.236C205.127 100.882 205.047 100.505 204.987 100.103C204.932 99.6738 204.855 99.2826 204.758 98.929C204.66 98.5754 204.525 98.2702 204.352 98.0134C204.185 97.7298 203.927 97.5538 203.578 97.4853C203.095 97.3905 202.637 97.4538 202.203 97.6752C201.796 97.9019 201.43 98.2062 201.104 98.5881C200.806 98.9753 200.552 99.4133 200.345 99.902C200.17 100.369 200.045 100.791 199.971 101.166C199.84 101.837 199.837 102.491 199.962 103.129C200.12 103.745 200.334 104.358 200.604 104.969C200.907 105.558 201.236 106.152 201.592 106.751C201.975 107.356 202.302 107.963 202.572 108.573C202.874 109.162 203.104 109.765 203.262 110.381C203.42 110.997 203.436 111.627 203.309 112.271C203.257 112.539 203.137 112.794 202.95 113.036C202.795 113.257 202.587 113.467 202.325 113.666C202.095 113.844 201.833 113.973 201.538 114.055C201.243 114.136 200.962 114.151 200.693 114.098C199.942 113.951 199.276 113.583 198.695 112.995C198.113 112.407 197.623 111.712 197.223 110.909C196.85 110.111 196.579 109.292 196.41 108.451C196.273 107.588 196.27 106.821 196.402 106.15ZM224.861 112.99C224.998 112.293 225.173 111.616 225.385 110.961C225.602 110.279 225.817 109.611 226.029 108.956C226.274 108.279 226.502 107.614 226.714 106.959C226.931 106.277 227.111 105.574 227.253 104.849C227.285 104.688 227.279 104.506 227.235 104.302C227.224 104.077 227.084 103.938 226.816 103.886C226.467 103.817 226.233 103.799 226.116 103.832C225.998 103.864 225.904 103.916 225.835 103.986C225.792 104.061 225.706 104.142 225.578 104.228C225.476 104.319 225.254 104.387 224.911 104.431L224.71 104.392C224.146 104.281 223.923 103.931 224.038 103.34C224.07 103.179 224.295 102.959 224.712 102.678C225.156 102.403 225.648 102.166 226.189 101.965C226.736 101.738 227.244 101.559 227.716 101.429C228.192 101.272 228.49 101.247 228.608 101.353C228.662 101.364 228.732 101.433 228.818 101.562C228.91 101.663 228.996 101.792 229.077 101.947C229.163 102.075 229.236 102.201 229.296 102.324C229.382 102.453 229.433 102.546 229.449 102.605C229.439 102.659 229.418 102.766 229.386 102.927C229.355 103.088 229.32 103.263 229.283 103.45C229.273 103.643 229.25 103.834 229.213 104.022C229.182 104.183 229.158 104.304 229.142 104.384C228.989 105.162 228.783 105.93 228.523 106.687C228.268 107.417 227.984 108.155 227.67 108.902C227.383 109.654 227.11 110.408 226.85 111.165C226.59 111.922 226.383 112.69 226.23 113.468C226.204 113.602 226.165 113.873 226.113 114.281C226.061 114.689 226.033 115.115 226.029 115.56C226.052 116.01 226.123 116.428 226.242 116.814C226.367 117.173 226.59 117.384 226.912 117.447C227.556 117.574 228.055 117.588 228.409 117.49C228.768 117.365 229.089 117.22 229.372 117.052C229.656 116.885 229.948 116.747 230.248 116.639C230.58 116.509 231.001 116.494 231.51 116.594C231.289 117.721 230.705 118.498 229.757 118.925C228.809 119.352 227.692 119.439 226.404 119.186C225.733 119.055 225.265 118.74 225.001 118.242C224.736 117.745 224.568 117.182 224.496 116.555C224.456 115.906 224.486 115.257 224.586 114.608C224.685 113.959 224.777 113.419 224.861 112.99ZM228.566 96.2457C228.624 95.9505 228.709 95.7303 228.821 95.5852C228.96 95.4452 229.204 95.4095 229.553 95.478C229.794 95.5254 229.937 95.6509 229.98 95.8545C230.056 96.0366 230.068 96.2617 230.015 96.5301C229.967 96.7715 229.872 96.9757 229.727 97.1424C229.615 97.2876 229.439 97.3365 229.197 97.2891C228.848 97.2206 228.633 97.1088 228.552 96.9536C228.504 96.7768 228.508 96.5408 228.566 96.2457ZM231.94 113.126C231.951 113.072 231.967 112.992 231.988 112.884C232.009 112.777 232.033 112.656 232.059 112.522C232.112 112.393 232.149 112.275 232.17 112.168C232.197 112.034 232.212 111.953 232.218 111.926C232.26 111.851 232.373 111.775 232.555 111.7C232.764 111.629 232.906 111.615 232.981 111.658C233.131 111.743 233.242 111.96 233.313 112.308C233.384 112.657 233.442 113.072 233.486 113.555C233.531 114.037 233.578 114.576 233.629 115.171C233.711 115.744 233.839 116.299 234.013 116.835C234.219 117.349 234.486 117.833 234.814 118.288C235.175 118.721 235.64 119.049 236.21 119.272C236.392 119.336 236.54 119.365 236.652 119.359C236.77 119.326 236.85 119.272 236.893 119.197C236.968 119.1 237.016 118.998 237.037 118.891C237.063 118.757 237.084 118.65 237.1 118.569C237.168 118.081 237.077 117.548 236.829 116.969C236.585 116.364 236.28 115.719 235.913 115.034C235.551 114.322 235.194 113.583 234.843 112.818C234.497 112.025 234.237 111.222 234.062 110.407C233.893 109.566 233.852 108.708 233.94 107.834C234.034 106.933 234.379 106.025 234.976 105.111C235.024 104.87 235.208 104.571 235.528 104.216C235.876 103.867 236.258 103.551 236.675 103.271C237.125 102.969 237.577 102.724 238.032 102.534C238.487 102.345 238.862 102.279 239.157 102.337C239.587 102.421 239.973 102.581 240.317 102.816C240.688 103.056 240.944 103.385 241.085 103.802C241.285 104.204 241.501 104.734 241.734 105.393C241.999 106.03 242.211 106.657 242.368 107.273C242.553 107.894 242.641 108.441 242.632 108.913C242.623 109.385 242.449 109.629 242.112 109.647C241.736 109.573 241.435 109.402 241.209 109.135C241.009 108.873 240.861 108.565 240.763 108.212C240.665 107.858 240.586 107.48 240.526 107.078C240.471 106.649 240.394 106.258 240.296 105.905C240.199 105.551 240.063 105.246 239.891 104.989C239.724 104.705 239.466 104.529 239.117 104.461C238.634 104.366 238.175 104.429 237.742 104.651C237.335 104.878 236.969 105.182 236.643 105.564C236.344 105.951 236.091 106.389 235.884 106.878C235.708 107.345 235.584 107.766 235.51 108.142C235.378 108.813 235.375 109.467 235.501 110.105C235.659 110.721 235.873 111.334 236.143 111.944C236.446 112.533 236.775 113.127 237.131 113.727C237.514 114.331 237.84 114.939 238.111 115.549C238.413 116.138 238.643 116.74 238.801 117.356C238.959 117.973 238.974 118.603 238.848 119.247C238.795 119.515 238.675 119.77 238.489 120.012C238.334 120.232 238.126 120.442 237.863 120.642C237.633 120.819 237.371 120.949 237.077 121.031C236.782 121.112 236.5 121.126 236.232 121.074C235.481 120.926 234.815 120.559 234.233 119.971C233.652 119.383 233.162 118.688 232.762 117.885C232.389 117.087 232.118 116.268 231.949 115.426C231.811 114.563 231.809 113.797 231.94 113.126ZM262.232 114.892L262.154 113.372L261.351 113.632L256.343 116.996C256.311 117.018 256.223 116.972 256.077 116.86C255.911 116.716 255.792 116.609 255.722 116.54C255.679 116.476 255.625 116.395 255.561 116.299C255.474 116.171 255.434 116.093 255.439 116.066L255.471 115.905C255.502 115.744 255.673 115.513 255.983 115.212C256.266 114.905 256.638 114.574 257.098 114.218C257.557 113.863 258.06 113.502 258.606 113.135C259.184 112.747 259.735 112.423 260.259 112.164C260.816 111.883 261.333 111.664 261.81 111.507C262.286 111.349 262.672 111.3 262.967 111.358C263.477 111.458 263.805 111.773 263.952 112.303C264.131 112.812 264.197 113.396 264.151 114.056C264.138 114.694 264.054 115.333 263.901 115.972C263.753 116.583 263.65 117.037 263.592 117.332C263.699 117.214 263.918 117.02 264.25 116.751C264.586 116.454 264.939 116.148 265.308 115.83C265.682 115.485 266.035 115.178 266.367 114.909C266.698 114.64 266.931 114.448 267.064 114.335C267.161 114.271 267.372 114.117 267.698 113.875C268.056 113.611 268.428 113.349 268.813 113.09C269.231 112.81 269.651 112.586 270.074 112.418C270.502 112.224 270.851 112.153 271.119 112.205C271.602 112.3 271.922 112.516 272.078 112.853C272.24 113.164 272.309 113.526 272.283 113.939C272.285 114.357 272.227 114.792 272.111 115.242C272 115.666 271.915 116.026 271.858 116.321C271.657 117.341 271.393 118.334 271.064 119.3C270.735 120.267 270.468 121.273 270.262 122.32L270.199 122.642C270.889 122.108 271.511 121.492 272.067 120.793C272.649 120.099 273.228 119.419 273.805 118.752C274.387 118.058 274.988 117.409 275.608 116.806C276.254 116.209 276.987 115.74 277.807 115.399C277.866 115.383 277.949 115.385 278.056 115.406C278.195 115.406 278.292 115.411 278.346 115.421C278.641 115.479 278.837 115.615 278.934 115.829C279.064 116.022 279.116 116.255 279.09 116.529C279.096 116.781 279.059 117.038 278.98 117.301C278.9 117.564 278.842 117.79 278.805 117.977C278.579 119.131 278.288 120.258 277.933 121.359C277.582 122.433 277.294 123.547 277.068 124.7C276.947 125.317 277.002 125.746 277.233 125.987C277.491 126.233 277.929 126.416 278.546 126.537C278.841 126.595 279.104 126.605 279.335 126.566C279.597 126.507 279.846 126.444 280.082 126.379C280.323 126.287 280.559 126.222 280.789 126.183C281.052 126.123 281.317 126.12 281.586 126.172C281.507 126.575 281.326 126.929 281.042 127.236C280.765 127.516 280.441 127.745 280.072 127.923C279.707 128.075 279.311 128.178 278.882 128.233C278.459 128.261 278.072 128.241 277.724 128.173C277.429 128.115 277.128 128.014 276.822 127.871C276.542 127.732 276.284 127.556 276.048 127.342C275.843 127.107 275.673 126.837 275.538 126.532C275.43 126.232 275.412 125.894 275.486 125.518L277.003 117.791C276.666 117.948 276.254 118.271 275.768 118.761C275.308 119.256 274.806 119.826 274.261 120.471C273.744 121.122 273.204 121.81 272.644 122.536C272.11 123.268 271.592 123.918 271.09 124.488C270.588 125.059 270.118 125.538 269.68 125.925C269.247 126.286 268.883 126.438 268.587 126.38C268.292 126.322 268.104 126.145 268.022 125.851C267.941 125.556 267.905 125.243 267.915 124.91C267.956 124.556 268.006 124.231 268.064 123.936C268.122 123.641 268.161 123.44 268.182 123.332C268.309 122.689 268.475 122.052 268.682 121.424C268.889 120.796 269.11 120.171 269.343 119.548C269.582 118.898 269.805 118.259 270.012 117.631C270.219 117.003 270.386 116.367 270.512 115.723C270.528 115.642 270.552 115.521 270.583 115.36C270.615 115.199 270.617 115.047 270.59 114.902C270.594 114.736 270.567 114.591 270.508 114.468C270.453 114.318 270.359 114.23 270.225 114.203C270.198 114.198 270.169 114.206 270.137 114.228C270.137 114.228 270.123 114.225 270.096 114.22C270.091 114.247 270.062 114.255 270.008 114.244C269.981 114.239 269.92 114.269 269.823 114.334C269.727 114.398 269.66 114.455 269.623 114.503C269.254 114.821 268.77 115.228 268.171 115.723C267.572 116.219 266.99 116.703 266.423 117.177C265.856 117.651 265.372 118.058 264.971 118.397C264.57 118.736 264.356 118.903 264.33 118.898C264.218 119.043 263.994 119.403 263.658 119.978C263.349 120.559 263.003 121.187 262.619 121.864C262.267 122.52 261.934 123.151 261.62 123.758C261.311 124.338 261.101 124.701 260.989 124.846C260.77 125.249 260.538 125.51 260.292 125.629C260.045 125.748 259.707 125.765 259.278 125.681C259.457 124.769 259.674 123.878 259.928 123.008C260.183 122.138 260.45 121.271 260.731 120.407C261.018 119.516 261.288 118.635 261.542 117.766C261.802 116.869 262.024 115.951 262.208 115.012L262.232 114.892ZM281.653 124.764C281.444 124.835 281.291 124.833 281.194 124.758C281.098 124.683 281.033 124.587 281 124.469C280.995 124.357 280.991 124.23 280.991 124.091C281.023 123.93 281.044 123.823 281.054 123.769C281.159 123.232 281.29 122.924 281.445 122.843C281.605 122.735 281.796 122.689 282.016 122.704C282.241 122.692 282.482 122.67 282.739 122.637C282.997 122.604 283.275 122.394 283.574 122.007C284.027 121.399 284.446 120.757 284.83 120.08C285.245 119.381 285.704 118.746 286.206 118.176C286.708 117.606 287.281 117.175 287.923 116.883C288.592 116.596 289.437 116.553 290.456 116.753C290.617 116.785 290.789 116.833 290.972 116.896C291.181 116.965 291.358 117.056 291.504 117.168C291.681 117.258 291.807 117.395 291.883 117.577C291.991 117.737 292.021 117.938 291.974 118.18C291.863 118.743 291.616 119.224 291.231 119.622C290.878 119.999 290.451 120.333 289.947 120.624C289.477 120.894 288.968 121.143 288.422 121.37C287.876 121.597 287.372 121.819 286.912 122.035C286.452 122.251 286.042 122.491 285.684 122.755C285.352 123.024 285.15 123.347 285.076 123.723L284.318 127.586C284.26 127.881 284.32 128.144 284.497 128.374C284.707 128.582 284.949 128.769 285.223 128.934C285.497 129.1 285.79 129.241 286.102 129.358C286.413 129.474 286.649 129.549 286.81 129.58C287.454 129.707 288.119 129.726 288.805 129.638C289.497 129.522 290.172 129.348 290.831 129.115C291.516 128.888 292.167 128.625 292.782 128.328C293.403 128.004 293.992 127.702 294.549 127.421C294.736 127.318 294.897 127.211 295.03 127.098C295.196 126.963 295.346 126.839 295.479 126.726C295.64 126.618 295.795 126.537 295.945 126.483C296.127 126.407 296.344 126.366 296.596 126.36C296.591 126.387 296.58 126.44 296.565 126.521C296.549 126.601 296.536 126.669 296.525 126.722C296.483 126.937 296.419 127.119 296.334 127.27C296.276 127.426 296.15 127.568 295.957 127.698C295.235 128.252 294.481 128.759 293.694 129.218C292.908 129.676 292.094 130.06 291.253 130.369C290.412 130.677 289.55 130.884 288.665 130.989C287.781 131.094 286.869 131.055 285.93 130.87C284.991 130.686 284.293 130.41 283.836 130.041C283.379 129.673 283.052 129.205 282.857 128.637C282.689 128.075 282.62 127.434 282.649 126.715C282.679 125.997 282.706 125.222 282.73 124.391L281.653 124.764ZM288.069 119.545C288.08 119.491 288.024 119.494 287.901 119.554C287.809 119.592 287.686 119.651 287.531 119.732C287.403 119.818 287.301 119.91 287.226 120.007C287.157 120.077 287.149 120.117 287.203 120.127C287.332 120.181 287.508 120.132 287.733 119.981C287.958 119.83 288.07 119.685 288.069 119.545ZM301.943 109.98L302.18 108.772C302.291 108.209 302.407 107.618 302.528 107.001C302.681 106.363 302.813 105.761 302.923 105.198L303.152 104.031C303.275 103.832 303.393 103.73 303.505 103.724C303.645 103.723 303.782 103.736 303.916 103.763C304.05 103.789 304.181 103.829 304.31 103.882C304.439 103.935 304.509 104.074 304.521 104.299C304.474 104.541 304.386 104.914 304.259 105.418C304.159 105.928 304.044 106.519 303.912 107.189L303.114 111.254C302.988 111.898 302.874 112.475 302.774 112.985C302.701 113.5 302.641 113.878 302.593 114.12C302.415 115.172 302.295 116.277 302.235 117.435L302.07 120.83C302.015 121.962 301.947 123.091 301.865 124.218C301.789 125.317 301.648 126.39 301.442 127.437C301.416 127.571 301.376 127.702 301.323 127.831C301.302 127.938 301.19 128.014 300.986 128.058C300.819 127.913 300.69 127.721 300.598 127.48C300.533 127.244 300.489 127.04 300.467 126.869C300.264 123.931 300.318 121.099 300.63 118.374C300.947 115.622 301.385 112.824 301.943 109.98ZM299.023 132.312C299.096 131.936 299.272 131.678 299.551 131.538C299.856 131.403 300.183 131.369 300.532 131.438C301.095 131.548 301.316 131.912 301.195 132.529C301.174 132.637 301.121 132.765 301.036 132.916C300.983 133.045 300.903 133.168 300.796 133.287C300.694 133.378 300.579 133.467 300.451 133.553C300.328 133.613 300.212 133.632 300.105 133.611C299.783 133.548 299.506 133.396 299.275 133.155C299.049 132.888 298.965 132.607 299.023 132.312Z" fill="#F07E40"/>
</svg>
